<svg width="41" height="41" viewBox="0 0 41 41" fill="none" xmlns="http://www.w3.org/2000/svg">
<path d="M17.0371 15.7636H14.393C14.896 16.1642 15.2201 16.7475 15.2944 17.3862H17.0371V18.1974H15.2944C15.1442 19.85 13.8221 20.9016 11.779 20.9617C13.0409 22.2838 14.393 23.9364 15.7451 25.5889H14.2128C12.9508 24.0566 11.779 22.6744 10.2466 21.0519V20.0603H11.148C12.8907 20.0603 13.8221 19.3092 13.9423 18.1974H10.2466V17.3862H13.8822C13.6719 16.4547 12.8006 16.004 11.3884 16.004H10.2466V14.9524H17.0371V15.7636Z" fill="white"/>
<path d="M30.3778 40.3717C28.784 40.3717 27.2555 39.7386 26.1286 38.6116C25.0016 37.4847 24.3685 35.9562 24.3685 34.3624V30.5765C24.3685 30.2577 24.4951 29.952 24.7205 29.7266C24.9459 29.5013 25.2516 29.3746 25.5703 29.3746C25.8891 29.3746 26.1948 29.5013 26.4202 29.7266C26.6456 29.952 26.7722 30.2577 26.7722 30.5765V34.3624C26.7722 35.3186 27.1521 36.2357 27.8283 36.9119C28.5045 37.5881 29.4216 37.968 30.3778 37.968C31.3341 37.968 32.2512 37.5881 32.9274 36.9119C33.6036 36.2357 33.9834 35.3186 33.9834 34.3624V13.1494C33.9834 12.8306 34.1101 12.5249 34.3355 12.2995C34.5608 12.0742 34.8666 11.9475 35.1853 11.9475H37.2585L30.0473 3.23398L22.746 11.9475H25.5703C25.8891 11.9475 26.1948 12.0742 26.4202 12.2995C26.6456 12.5249 26.7722 12.8306 26.7722 13.1494V19.2489C26.7722 26.4601 20.9432 32.3493 13.792 32.3493C12.0329 32.4339 10.2749 32.1604 8.62459 31.5456C6.97426 30.9307 5.46595 29.9871 4.19106 28.7721C2.91617 27.557 1.90124 26.0958 1.20777 24.4769C0.514305 22.858 0.156738 21.1152 0.156738 19.354C0.156738 17.5929 0.514305 15.8501 1.20777 14.2312C1.90124 12.6123 2.91617 11.1511 4.19106 9.93603C5.46595 8.72098 6.97426 7.77743 8.62459 7.16254C10.2749 6.54765 12.0329 6.27422 13.792 6.35884C14.1108 6.35884 14.4165 6.48546 14.6419 6.71085C14.8673 6.93625 14.9939 7.24195 14.9939 7.56071C14.9939 7.87946 14.8673 8.18516 14.6419 8.41056C14.4165 8.63595 14.1108 8.76257 13.792 8.76257C11.6879 8.75675 9.62959 9.37689 7.87889 10.5441C6.12819 11.7114 4.76422 13.3729 3.96047 15.3175C3.15672 17.2621 2.94952 19.4018 3.36521 21.4644C3.7809 23.5271 4.8007 25.4195 6.2949 26.901C7.7891 28.3824 9.69018 29.386 11.7563 29.784C13.8225 30.1821 15.9603 29.9565 17.8979 29.1362C19.8356 28.3158 21.4854 26.9377 22.6376 25.177C23.7898 23.4164 24.3923 21.3529 24.3685 19.2489V14.3513H20.1619C19.9304 14.3522 19.7033 14.2878 19.5067 14.1656C19.3101 14.0434 19.1519 13.8682 19.0502 13.6602C18.9597 13.4488 18.9287 13.2168 18.9605 12.9891C18.9922 12.7614 19.0856 12.5467 19.2305 12.3682L29.1159 0.589861C29.2305 0.453179 29.3727 0.342342 29.5333 0.264654C29.6938 0.186967 29.869 0.144194 30.0473 0.13916C30.2256 0.144194 30.4008 0.186967 30.5614 0.264654C30.7219 0.342342 30.8642 0.453179 30.9788 0.589861L40.744 12.3682C40.8821 12.5475 40.9682 12.7614 40.9928 12.9865C41.0174 13.2115 40.9795 13.439 40.8832 13.6439C40.787 13.8488 40.6361 14.0232 40.4472 14.148C40.2584 14.2728 40.0387 14.3431 39.8125 14.3513H36.3872V34.3624C36.3872 35.9562 35.7541 37.4847 34.6271 38.6116C33.5001 39.7386 31.9716 40.3717 30.3778 40.3717Z" fill="white"/>
</svg>
